<mxfile host="app.diagrams.net" modified="2024-03-04T16:24:08.574Z" agent="Mozilla/5.0 (Windows NT 10.0; Win64; x64; rv:123.0) Gecko/20100101 Firefox/123.0" etag="AFACQVoOJ5PEPeladFz9" version="24.0.1" type="device">
  <diagram name="Page-1" id="FKC9ivrRLvqmn5THLgHb">
    <mxGraphModel dx="2312" dy="672" grid="1" gridSize="10" guides="1" tooltips="1" connect="1" arrows="1" fold="1" page="0" pageScale="1" pageWidth="827" pageHeight="1169" background="#CCCCCC" math="0" shadow="1">
      <root>
        <mxCell id="0" />
        <mxCell id="1" parent="0" />
        <mxCell id="mNWhCUC1eEqsRLPPGKus-2" value="Client" style="shape=umlActor;verticalLabelPosition=bottom;verticalAlign=top;html=1;outlineConnect=0;" vertex="1" parent="1">
          <mxGeometry x="-18" y="1300" width="30" height="60" as="geometry" />
        </mxCell>
        <mxCell id="mNWhCUC1eEqsRLPPGKus-3" value="Application" style="shape=umlActor;verticalLabelPosition=bottom;verticalAlign=top;html=1;outlineConnect=0;" vertex="1" parent="1">
          <mxGeometry x="700" y="850" width="30" height="60" as="geometry" />
        </mxCell>
        <mxCell id="mNWhCUC1eEqsRLPPGKus-23" value="" style="edgeStyle=none;curved=1;rounded=0;orthogonalLoop=1;jettySize=auto;html=1;fontSize=12;startSize=8;endSize=8;dashed=1;dashPattern=8 8;" edge="1" parent="1" source="mNWhCUC1eEqsRLPPGKus-5" target="mNWhCUC1eEqsRLPPGKus-6">
          <mxGeometry relative="1" as="geometry" />
        </mxCell>
        <mxCell id="mNWhCUC1eEqsRLPPGKus-5" value="ConsulterProduits" style="ellipse;whiteSpace=wrap;html=1;" vertex="1" parent="1">
          <mxGeometry x="152" y="1290" width="120" height="80" as="geometry" />
        </mxCell>
        <mxCell id="mNWhCUC1eEqsRLPPGKus-26" style="edgeStyle=none;curved=1;rounded=0;orthogonalLoop=1;jettySize=auto;html=1;entryX=0;entryY=1;entryDx=0;entryDy=0;fontSize=12;startSize=8;endSize=8;dashed=1;dashPattern=8 8;" edge="1" parent="1" source="mNWhCUC1eEqsRLPPGKus-6" target="mNWhCUC1eEqsRLPPGKus-14">
          <mxGeometry relative="1" as="geometry" />
        </mxCell>
        <mxCell id="mNWhCUC1eEqsRLPPGKus-6" value="AjouterPanier" style="ellipse;whiteSpace=wrap;html=1;" vertex="1" parent="1">
          <mxGeometry x="352" y="1290" width="120" height="80" as="geometry" />
        </mxCell>
        <mxCell id="mNWhCUC1eEqsRLPPGKus-7" value="SupprimerProduit" style="ellipse;whiteSpace=wrap;html=1;" vertex="1" parent="1">
          <mxGeometry x="512" y="1370" width="120" height="80" as="geometry" />
        </mxCell>
        <mxCell id="mNWhCUC1eEqsRLPPGKus-8" value="ConsulterPanier" style="ellipse;whiteSpace=wrap;html=1;" vertex="1" parent="1">
          <mxGeometry x="512" y="1510" width="120" height="80" as="geometry" />
        </mxCell>
        <mxCell id="mNWhCUC1eEqsRLPPGKus-25" style="edgeStyle=none;curved=1;rounded=0;orthogonalLoop=1;jettySize=auto;html=1;fontSize=12;startSize=8;endSize=8;dashed=1;dashPattern=8 8;" edge="1" parent="1" source="mNWhCUC1eEqsRLPPGKus-9" target="mNWhCUC1eEqsRLPPGKus-10">
          <mxGeometry relative="1" as="geometry" />
        </mxCell>
        <mxCell id="mNWhCUC1eEqsRLPPGKus-9" value="PasserCommande" style="ellipse;whiteSpace=wrap;html=1;" vertex="1" parent="1">
          <mxGeometry x="512" y="1220" width="120" height="80" as="geometry" />
        </mxCell>
        <mxCell id="mNWhCUC1eEqsRLPPGKus-10" value="ConfirmerCommande" style="ellipse;whiteSpace=wrap;html=1;" vertex="1" parent="1">
          <mxGeometry x="742" y="1290" width="120" height="80" as="geometry" />
        </mxCell>
        <mxCell id="mNWhCUC1eEqsRLPPGKus-46" style="edgeStyle=none;curved=1;rounded=0;orthogonalLoop=1;jettySize=auto;html=1;entryX=1;entryY=0.5;entryDx=0;entryDy=0;fontSize=12;startSize=8;endSize=8;dashed=1;dashPattern=8 8;" edge="1" parent="1" source="mNWhCUC1eEqsRLPPGKus-11" target="mNWhCUC1eEqsRLPPGKus-15">
          <mxGeometry relative="1" as="geometry" />
        </mxCell>
        <mxCell id="mNWhCUC1eEqsRLPPGKus-11" value="EnregistrerCommande" style="ellipse;whiteSpace=wrap;html=1;" vertex="1" parent="1">
          <mxGeometry x="220" y="860" width="164" height="70" as="geometry" />
        </mxCell>
        <mxCell id="mNWhCUC1eEqsRLPPGKus-12" value="AfficherProduits" style="ellipse;whiteSpace=wrap;html=1;" vertex="1" parent="1">
          <mxGeometry x="400" y="770" width="164" height="70" as="geometry" />
        </mxCell>
        <mxCell id="mNWhCUC1eEqsRLPPGKus-13" value="CalculerSommePanier" style="ellipse;whiteSpace=wrap;html=1;" vertex="1" parent="1">
          <mxGeometry x="400" y="940" width="164" height="70" as="geometry" />
        </mxCell>
        <mxCell id="mNWhCUC1eEqsRLPPGKus-14" value="ConsulterPrix" style="ellipse;whiteSpace=wrap;html=1;" vertex="1" parent="1">
          <mxGeometry x="512" y="1070" width="120" height="80" as="geometry" />
        </mxCell>
        <mxCell id="mNWhCUC1eEqsRLPPGKus-15" value="&lt;font style=&quot;font-size: 10px;&quot;&gt;AfficherConfirmationCommande&lt;/font&gt;" style="ellipse;whiteSpace=wrap;html=1;" vertex="1" parent="1">
          <mxGeometry x="-40" y="860" width="164" height="70" as="geometry" />
        </mxCell>
        <mxCell id="mNWhCUC1eEqsRLPPGKus-17" value=": &amp;lt;&amp;lt; includes &amp;gt;&amp;gt;" style="text;html=1;align=center;verticalAlign=middle;whiteSpace=wrap;rounded=0;fontSize=16;rotation=0;" vertex="1" parent="1">
          <mxGeometry x="160" y="1090" width="132" height="30" as="geometry" />
        </mxCell>
        <mxCell id="mNWhCUC1eEqsRLPPGKus-24" style="edgeStyle=none;curved=1;rounded=0;orthogonalLoop=1;jettySize=auto;html=1;entryX=0.015;entryY=0.758;entryDx=0;entryDy=0;entryPerimeter=0;fontSize=12;startSize=8;endSize=8;dashed=1;dashPattern=8 8;" edge="1" parent="1" source="mNWhCUC1eEqsRLPPGKus-6" target="mNWhCUC1eEqsRLPPGKus-9">
          <mxGeometry relative="1" as="geometry" />
        </mxCell>
        <mxCell id="mNWhCUC1eEqsRLPPGKus-27" style="edgeStyle=none;curved=1;rounded=0;orthogonalLoop=1;jettySize=auto;html=1;entryX=0.035;entryY=0.373;entryDx=0;entryDy=0;entryPerimeter=0;fontSize=12;startSize=8;endSize=8;dashed=1;dashPattern=8 8;" edge="1" parent="1" source="mNWhCUC1eEqsRLPPGKus-6" target="mNWhCUC1eEqsRLPPGKus-7">
          <mxGeometry relative="1" as="geometry" />
        </mxCell>
        <mxCell id="mNWhCUC1eEqsRLPPGKus-28" style="edgeStyle=none;curved=1;rounded=0;orthogonalLoop=1;jettySize=auto;html=1;entryX=-0.025;entryY=0.353;entryDx=0;entryDy=0;entryPerimeter=0;fontSize=12;startSize=8;endSize=8;dashed=1;dashPattern=8 8;" edge="1" parent="1" source="mNWhCUC1eEqsRLPPGKus-6" target="mNWhCUC1eEqsRLPPGKus-8">
          <mxGeometry relative="1" as="geometry" />
        </mxCell>
        <mxCell id="mNWhCUC1eEqsRLPPGKus-29" value="AnnulerCommande" style="ellipse;whiteSpace=wrap;html=1;" vertex="1" parent="1">
          <mxGeometry x="742" y="1160" width="120" height="80" as="geometry" />
        </mxCell>
        <mxCell id="mNWhCUC1eEqsRLPPGKus-30" style="edgeStyle=none;curved=1;rounded=0;orthogonalLoop=1;jettySize=auto;html=1;entryX=0.038;entryY=0.648;entryDx=0;entryDy=0;entryPerimeter=0;fontSize=12;startSize=8;endSize=8;dashed=1;dashPattern=8 8;" edge="1" parent="1" source="mNWhCUC1eEqsRLPPGKus-9" target="mNWhCUC1eEqsRLPPGKus-29">
          <mxGeometry relative="1" as="geometry" />
        </mxCell>
        <mxCell id="mNWhCUC1eEqsRLPPGKus-38" value="" style="endArrow=none;html=1;rounded=0;fontSize=12;startSize=8;endSize=8;curved=1;" edge="1" parent="1">
          <mxGeometry width="50" height="50" relative="1" as="geometry">
            <mxPoint x="384" y="900" as="sourcePoint" />
            <mxPoint x="690" y="900" as="targetPoint" />
          </mxGeometry>
        </mxCell>
        <mxCell id="mNWhCUC1eEqsRLPPGKus-42" value="" style="endArrow=none;html=1;rounded=0;fontSize=12;startSize=8;endSize=8;curved=1;" edge="1" parent="1">
          <mxGeometry width="50" height="50" relative="1" as="geometry">
            <mxPoint x="14" y="1329.67" as="sourcePoint" />
            <mxPoint x="152" y="1329.67" as="targetPoint" />
          </mxGeometry>
        </mxCell>
        <mxCell id="mNWhCUC1eEqsRLPPGKus-43" value="" style="endArrow=none;html=1;rounded=0;fontSize=12;startSize=8;endSize=8;curved=1;exitX=0.934;exitY=0.751;exitDx=0;exitDy=0;exitPerimeter=0;" edge="1" parent="1" source="mNWhCUC1eEqsRLPPGKus-12">
          <mxGeometry width="50" height="50" relative="1" as="geometry">
            <mxPoint x="560" y="820" as="sourcePoint" />
            <mxPoint x="690" y="870" as="targetPoint" />
          </mxGeometry>
        </mxCell>
        <mxCell id="mNWhCUC1eEqsRLPPGKus-45" value="" style="endArrow=none;html=1;rounded=0;fontSize=12;startSize=8;endSize=8;curved=1;" edge="1" parent="1">
          <mxGeometry width="50" height="50" relative="1" as="geometry">
            <mxPoint x="690" y="910" as="sourcePoint" />
            <mxPoint x="564" y="977" as="targetPoint" />
          </mxGeometry>
        </mxCell>
        <mxCell id="mNWhCUC1eEqsRLPPGKus-47" style="edgeStyle=none;curved=1;rounded=0;orthogonalLoop=1;jettySize=auto;html=1;entryX=1;entryY=0.5;entryDx=0;entryDy=0;fontSize=12;startSize=8;endSize=8;dashed=1;dashPattern=8 8;" edge="1" parent="1">
          <mxGeometry relative="1" as="geometry">
            <mxPoint x="146" y="1109.81" as="sourcePoint" />
            <mxPoint x="50" y="1109.81" as="targetPoint" />
          </mxGeometry>
        </mxCell>
      </root>
    </mxGraphModel>
  </diagram>
</mxfile>
